<?xml version="1.0" encoding="UTF-8"?>
<svg width="9px" height="16px" viewBox="0 0 9 16" version="1.1" xmlns="http://www.w3.org/2000/svg" xmlns:xlink="http://www.w3.org/1999/xlink">
    <!-- Generator: sketchtool 47.1 (45422) - http://www.bohemiancoding.com/sketch -->
    <title>019B3E2F-E88E-47AB-B15C-68836E6BAF54</title>
    <desc>Created with sketchtool.</desc>
    <defs></defs>
    <g id="05-My-profile" stroke="none" stroke-width="1" fill="none" fill-rule="evenodd" opacity="0.35">
        <g id="05.01.-Profile" transform="translate(-705.000000, -726.000000)">
            <g id="Personal-data-" transform="translate(418.000000, 420.000000)">
                <g id="Group-2-Copy-2" transform="translate(0.000000, 292.000000)">
                    <g id="Group-8">
                        <g id="Group-13" transform="translate(269.000000, 0.000000)">
                            <g id="fc" transform="translate(10.000000, 10.000000)">
                                <path d="M8.25806452,12.5216 L10.0119226,12.5216 L10.0119226,19.7419355 C10.0119226,19.8844903 10.1274323,20 10.2699871,20 L13.2437161,20 C13.386271,20 13.5017806,19.8844903 13.5017806,19.7419355 L13.5017806,12.5556129 L15.5179871,12.5556129 C15.6490839,12.5556129 15.7593806,12.4572387 15.7743484,12.3270194 L16.0805677,9.66885161 C16.0889806,9.59571613 16.0658065,9.52247742 16.0168774,9.4676129 C15.9678968,9.41269677 15.8978065,9.38126452 15.8242581,9.38126452 L13.5018839,9.38126452 L13.5018839,7.71499355 C13.5018839,7.21269677 13.7723355,6.9579871 14.3058065,6.9579871 L15.8242581,6.9579871 C15.9668129,6.9579871 16.0823226,6.84242581 16.0823226,6.69992258 L16.0823226,4.25997419 C16.0823226,4.11741935 15.9668129,4.00190968 15.8242581,4.00190968 L13.7316129,4.00190968 C13.7168516,4.0011871 13.6840774,4 13.6357677,4 C13.272671,4 12.0105806,4.07127742 11.0136258,4.98843871 C9.90900645,6.0048 10.0625548,7.22172903 10.0992516,7.43272258 L10.0992516,9.3812129 L8.25806452,9.3812129 C8.11550968,9.3812129 8,9.49672258 8,9.63927742 L8,12.2634839 C8,12.4060387 8.11550968,12.5216 8.25806452,12.5216 L8.25806452,12.5216 Z" id="XMLID_835_" fill="#ffffff"></path>
                                <rect id="Rectangle-2" opacity="1"  x="0" y="0" width="24" height="24"></rect>
                            </g>
                        </g>
                    </g>
                </g>
            </g>
        </g>
    </g>
</svg>