<?xml version="1.0" encoding="UTF-8"?>
<svg width="20px" height="13px" viewBox="0 0 20 13" version="1.1" xmlns="http://www.w3.org/2000/svg" xmlns:xlink="http://www.w3.org/1999/xlink">
    <!-- Generator: sketchtool 47.1 (45422) - http://www.bohemiancoding.com/sketch -->
    <title>8E46CB65-0E41-431F-B1C8-61D93CBD547F</title>
    <desc>Created with sketchtool.</desc>
    <defs></defs>
    <g id="05-My-profile" stroke="none" stroke-width="1" fill="none" fill-rule="evenodd" opacity="0.35">
        <g id="05.01.-Profile" transform="translate(-759.000000, -728.000000)">
            <g id="Personal-data-" transform="translate(418.000000, 420.000000)">
                <g id="Group-2-Copy-2" transform="translate(0.000000, 292.000000)">
                    <g id="Group-8">
                        <g id="Group-14" transform="translate(329.000000, 0.000000)">
                            <g id="G+" transform="translate(10.000000, 10.000000)">
                                <rect id="Rectangle-2" opacity="0" x="0" y="0" width="24" height="24"></rect>
                                <g id="XMLID_510_" transform="translate(2.000000, 6.000000)" fill="#FFFFFF">
                                    <path d="M19.4765537,5.20717921 L18.2242414,5.20717921 L18.2242414,3.95480363 C18.2242414,3.69264761 18.011821,3.4802272 17.7496649,3.4802272 L16.0590971,3.4802272 C15.7969411,3.4802272 15.5845207,3.69264761 15.5845207,3.95480363 L15.5845207,5.20717921 L14.3322084,5.20717921 C14.0700523,5.20717921 13.8576319,5.41959962 13.8576319,5.68175565 L13.8576319,7.37232347 C13.8576319,7.63447949 14.0700523,7.8468999 14.3322084,7.8468999 L15.5845207,7.8468999 L15.5845207,9.09927548 C15.5845207,9.36136823 15.7969411,9.57385192 16.0590971,9.57385192 L17.7496649,9.57385192 C18.011821,9.57385192 18.2242414,9.36136823 18.2242414,9.09927548 L18.2242414,7.8468999 L19.4765537,7.8468999 C19.7387097,7.8468999 19.9511301,7.63447949 19.9511301,7.37232347 L19.9511301,5.68175565 C19.9511301,5.41959962 19.7387097,5.20717921 19.4765537,5.20717921 L19.4765537,5.20717921 Z" id="XMLID_511_"></path>
                                    <path d="M6.44832141,3.08873328 C7.02338149,3.08873328 7.57610485,3.24376158 8.04758072,3.53717637 L8.58625661,3.90576407 C8.77399905,4.03421609 9.02653699,4.0114997 9.18827264,3.85128269 L10.7593105,2.29492509 C10.8598574,2.19532732 10.9106687,2.05611823 10.8979501,1.91520067 C10.8852947,1.7742831 10.8103749,1.64640057 10.6936924,1.56635535 L9.78060731,0.940167558 C9.76200391,0.92744891 9.74245136,0.915995799 9.72226605,0.906061332 L8.83771885,0.469324457 C8.82601263,0.463502986 8.8140533,0.45818773 8.80190414,0.453378689 C8.03992422,0.152560505 7.23713072,0 6.41586038,0 C4.72276148,0 3.12571686,0.649853333 1.91890062,1.82965035 C0.69341771,3.02773439 0.0119259481,4.65692365 0.000156452506,6.41715929 C-0.01167632,8.17777459 0.648048203,9.81639211 1.85764862,11.0310547 C3.05788407,12.2364156 4.7607276,12.9277785 6.52963217,12.9277785 C8.27974351,12.9277785 9.92177798,12.2482483 11.0346281,11.0634524 C11.916138,10.1249934 12.4570919,8.87147879 12.599275,7.43844778 C12.6006038,7.42484326 12.6014264,7.41123873 12.6015529,7.39763421 L12.6180049,6.11026653 C12.6183846,6.08362697 12.6164863,6.05705069 12.61231,6.03072752 L12.5433382,5.59076353 C12.5072071,5.35986627 12.3082014,5.18965152 12.07452,5.18965152 L6.59018812,5.18965152 C6.3280321,5.18965152 6.11561169,5.40213521 6.11561169,5.66422796 L6.11561169,7.56139472 C6.11561169,7.82348747 6.3280321,8.03597115 6.59018812,8.03597115 L9.38613938,8.03597115 C9.25800374,8.31685713 9.05608728,8.6130561 8.80076516,8.88906976 C8.24386553,9.49133889 7.41335677,9.83676726 6.5221655,9.83676726 C5.61205445,9.83676726 4.740479,9.48013889 4.13093303,8.85838048 C2.86210547,7.56449528 2.87665915,5.31000411 4.16187541,4.03383643 C4.76692873,3.43327577 5.60034823,3.08873328 6.44832141,3.08873328 L6.44832141,3.08873328 Z" id="XMLID_512_"></path>
                                </g>
                            </g>
                        </g>
                    </g>
                </g>
            </g>
        </g>
    </g>
</svg>