<?xml version="1.0" encoding="UTF-8"?>
<svg width="20px" height="16px" viewBox="0 0 20 16" version="1.1" xmlns="http://www.w3.org/2000/svg" xmlns:xlink="http://www.w3.org/1999/xlink">
    <!-- Generator: sketchtool 47.1 (45422) - http://www.bohemiancoding.com/sketch -->
    <title>CF5C2E7D-5085-4010-AA48-81D169846ACF</title>
    <desc>Created with sketchtool.</desc>
    <defs></defs>
    <g id="Mobile" stroke="none" stroke-width="1" fill="none" fill-rule="evenodd">
        <g id="Mob.-01.02.-Menu" transform="translate(-26.000000, -119.000000)">
            <g id="menu">
                <g id="Group" transform="translate(24.000000, 67.000000)">
                    <g id="Group-6" transform="translate(0.000000, 48.000000)">
                        <rect id="Rectangle-3" fill="#D8D8D8" opacity="0" x="0" y="0" width="24" height="24"></rect>
                        <path d="M20,17 L16,17 C14.697,17 13.719,17.17 13,17.39 L13,7.295 C13.296,6.904 14.176,6 16,6 L20,6 L20,17 Z M4,17 L4,6 L8,6 C9.831,6 10.711,6.911 11,7.293 L11,17.39 C10.281,17.17 9.303,17 8,17 L4,17 Z M21,4 L16,4 C14.027,4 12.752,4.758 12,5.447 C11.248,4.758 9.973,4 8,4 L3,4 C2.447,4 2,4.448 2,5 L2,18 C2,18.552 2.447,19 3,19 L8,19 C10.385,19 11.249,19.673 11.307,19.72 C11.496,19.903 11.746,20 12,20 C12.126,20 12.254,19.976 12.375,19.927 C12.486,19.882 12.58,19.815 12.666,19.738 C12.673,19.732 12.683,19.73 12.69,19.723 C12.699,19.716 13.541,19 16,19 L21,19 C21.553,19 22,18.552 22,18 L22,5 C22,4.448 21.553,4 21,4 L21,4 Z" id="Page-1" fill-opacity="0.54" fill="#000000"></path>
                    </g>
                </g>
            </g>
        </g>
    </g>
</svg>