<?xml version="1.0" encoding="UTF-8"?>
<svg width="16px" height="16px" viewBox="0 0 16 16" version="1.1" xmlns="http://www.w3.org/2000/svg" xmlns:xlink="http://www.w3.org/1999/xlink">
    <!-- Generator: sketchtool 47.1 (45422) - http://www.bohemiancoding.com/sketch -->
    <title>37E6D262-84F0-4BD4-8171-ABB4F2AD3428</title>
    <desc>Created with sketchtool.</desc>
    <defs></defs>
    <g id="05-My-profile" stroke="none" stroke-width="1" fill="none" fill-rule="evenodd">
        <g id="05.01.-Profile" transform="translate(-547.000000, -314.000000)">
            <g id="Avatar-and-name" transform="translate(418.000000, 248.000000)">
                <g id="Group-18" transform="translate(128.000000, 64.000000)">
                    <g id="ic_help_outline_black_24px" transform="translate(0.000000, 1.000000)">
                        <polygon id="Shape" points="0 0 18 0 18 18 0 18"></polygon>
                        <path d="M8.25,13.5 L9.75,13.5 L9.75,12 L8.25,12 L8.25,13.5 Z M9,1.5 C4.86,1.5 1.5,4.86 1.5,9 C1.5,13.14 4.86,16.5 9,16.5 C13.14,16.5 16.5,13.14 16.5,9 C16.5,4.86 13.14,1.5 9,1.5 Z M9,15 C5.6925,15 3,12.3075 3,9 C3,5.6925 5.6925,3 9,3 C12.3075,3 15,5.6925 15,9 C15,12.3075 12.3075,15 9,15 Z M9,4.5 C7.3425,4.5 6,5.8425 6,7.5 L7.5,7.5 C7.5,6.675 8.175,6 9,6 C9.825,6 10.5,6.675 10.5,7.5 C10.5,9 8.25,8.8125 8.25,11.25 L9.75,11.25 C9.75,9.5625 12,9.375 12,7.5 C12,5.8425 10.6575,4.5 9,4.5 Z" id="Shape" fill-opacity="0.22" fill="#000000" fill-rule="nonzero"></path>
                    </g>
                </g>
            </g>
        </g>
    </g>
</svg>