<?xml version="1.0" encoding="UTF-8"?>
<svg width="20px" height="16px" viewBox="0 0 20 16" version="1.1" xmlns="http://www.w3.org/2000/svg" xmlns:xlink="http://www.w3.org/1999/xlink">
    <!-- Generator: sketchtool 48.2 (47327) - http://www.bohemiancoding.com/sketch -->
    <title>E3D0D7E8-2C8E-4AA4-BC3B-F1873E480CB7</title>
    <desc>Created with sketchtool.</desc>
    <defs></defs>
    <g id="03.07.c-Shop-details" stroke="none" stroke-width="1" fill="none" fill-rule="evenodd" transform="translate(-1047.000000, -400.000000)">
        <g id="ic_mail_outline_black_24px" transform="translate(1045.000000, 396.000000)">
            <polygon id="Shape" points="0 0 24 0 24 24 0 24"></polygon>
            <path d="M20,4 L4,4 C2.9,4 2.01,4.9 2.01,6 L2,18 C2,19.1 2.9,20 4,20 L20,20 C21.1,20 22,19.1 22,18 L22,6 C22,4.9 21.1,4 20,4 Z M20,18 L4,18 L4,8 L12,13 L20,8 L20,18 Z M12,11 L4,6 L20,6 L12,11 Z" id="Shape" fill-opacity="0.54" fill="#000000" fill-rule="nonzero"></path>
        </g>
    </g>
</svg>