<?xml version="1.0" encoding="UTF-8"?>
<svg width="18px" height="18px" viewBox="0 0 18 18" version="1.1" xmlns="http://www.w3.org/2000/svg" xmlns:xlink="http://www.w3.org/1999/xlink">
    <!-- Generator: sketchtool 47.1 (45422) - http://www.bohemiancoding.com/sketch -->
    <title>083FEEAA-8769-41F0-885D-BDBEACEF2B3E</title>
    <desc>Created with sketchtool.</desc>
    <defs></defs>
    <g id="03-Product-page" stroke="none" stroke-width="1" fill="none" fill-rule="evenodd">
        <g id="03.07.b-Shop-details-working-hours" transform="translate(-735.000000, -359.000000)">
            <g id="ic_phone_black_24px" transform="translate(732.000000, 356.000000)">
                <polygon id="Shape" points="0 0 24 0 24 24 0 24"></polygon>
                <path d="M6.62,10.79 C8.06,13.62 10.38,15.93 13.21,17.38 L15.41,15.18 C15.68,14.91 16.08,14.82 16.43,14.94 C17.55,15.31 18.76,15.51 20,15.51 C20.55,15.51 21,15.96 21,16.51 L21,20 C21,20.55 20.55,21 20,21 C10.61,21 3,13.39 3,4 C3,3.45 3.45,3 4,3 L7.5,3 C8.05,3 8.5,3.45 8.5,4 C8.5,5.25 8.7,6.45 9.07,7.57 C9.18,7.92 9.1,8.31 8.82,8.59 L6.62,10.79 Z" id="Shape" fill-opacity="0.54" fill="#000000" fill-rule="nonzero"></path>
            </g>
        </g>
    </g>
</svg>