<?xml version="1.0" encoding="UTF-8"?>
<svg width="20px" height="20px" viewBox="0 0 20 20" version="1.1" xmlns="http://www.w3.org/2000/svg" xmlns:xlink="http://www.w3.org/1999/xlink">
    <!-- Generator: sketchtool 47.1 (45422) - http://www.bohemiancoding.com/sketch -->
    <title>22567FE5-B008-4B13-91D8-54CD6FFEC66C</title>
    <desc>Created with sketchtool.</desc>
    <defs></defs>
    <g id="03-Product-page" stroke="none" stroke-width="1" fill="none" fill-rule="evenodd">
        <g id="03.07.b-Shop-details-working-hours" transform="translate(-420.000000, -358.000000)">
            <g id="ic_access_time_black_24px" transform="translate(418.000000, 356.000000)">
                <path d="M11.99,2 C6.47,2 2,6.48 2,12 C2,17.52 6.47,22 11.99,22 C17.52,22 22,17.52 22,12 C22,6.48 17.52,2 11.99,2 Z M12,20 C7.58,20 4,16.42 4,12 C4,7.58 7.58,4 12,4 C16.42,4 20,7.58 20,12 C20,16.42 16.42,20 12,20 Z" id="Shape" fill-opacity="0.54" fill="#000000" fill-rule="nonzero"></path>
                <polygon id="Shape" points="0 0 24 0 24 24 0 24"></polygon>
                <polygon id="Shape" fill-opacity="0.54" fill="#000000" fill-rule="nonzero" points="12.5 7 11 7 11 13 16.25 16.15 17 14.92 12.5 12.25"></polygon>
            </g>
        </g>
    </g>
</svg>