<?xml version="1.0" encoding="UTF-8"?>
<svg width="20px" height="20px" viewBox="0 0 20 20" version="1.1" xmlns="http://www.w3.org/2000/svg" xmlns:xlink="http://www.w3.org/1999/xlink">
    <!-- Generator: sketchtool 47.1 (45422) - http://www.bohemiancoding.com/sketch -->
    <title>1AAA94E9-71E0-4D0D-8290-418C89FD61E4</title>
    <desc>Created with sketchtool.</desc>
    <defs></defs>
    <g id="Mobile" stroke="none" stroke-width="1" fill="none" fill-rule="evenodd">
        <g id="Mob.-01.02.-Menu" transform="translate(-26.000000, -405.000000)">
            <g id="menu">
                <g id="Group" transform="translate(24.000000, 67.000000)">
                    <g id="Page-1-Copy" transform="translate(0.000000, 336.000000)">
                        <rect id="Rectangle-2" fill="#D8D8D8" opacity="0" x="0" y="0" width="24" height="24"></rect>
                        <path d="M12,4 C7.589,4 4,7.589 4,12 C4,16.411 7.589,20 12,20 C16.411,20 20,16.411 20,12 C20,7.589 16.411,4 12,4 M12,22 C6.486,22 2,17.514 2,12 C2,6.486 6.486,2 12,2 C17.514,2 22,6.486 22,12 C22,17.514 17.514,22 12,22" id="Fill-1" fill-opacity="0.54" fill="#000000"></path>
                        <path d="M15,9 C15,7.343 13.657,6 12,6 C10.343,6 9,7.343 9,9 C9,10.657 10.343,12 12,12 C13.657,12 15,10.657 15,9" id="Fill-3" fill-opacity="0.54" fill="#000000"></path>
                        <path d="M12,14 C10.21,14 8.58,14.67 7.34,15.79 C7.77,16.31 8.28,16.76 8.86,17.11 C9.72,16.42 10.81,16 12,16 C13.19,16 14.28,16.42 15.14,17.11 C15.72,16.76 16.23,16.31 16.66,15.79 C15.42,14.67 13.79,14 12,14" id="Fill-5" fill-opacity="0.54" fill="#000000"></path>
                    </g>
                </g>
            </g>
        </g>
    </g>
</svg>