
<svg width="18px" height="18px" viewBox="0 0 18 18" version="1.1" xmlns="http://www.w3.org/2000/svg" xmlns:xlink="http://www.w3.org/1999/xlink">
    <!-- Generator: sketchtool 47.1 (45422) - http://www.bohemiancoding.com/sketch -->
    <title>53FAB7BE-CAE1-4527-9DD1-EAAB33C7323E</title>
    <desc>Created with sketchtool.</desc>
    <defs></defs>
    <g id="Mobile" stroke="none" stroke-width="1" fill="none" fill-rule="evenodd" fill-opacity="0.54">
        <g id="Mob.-01.01.-Home" transform="translate(-39.000000, -67.000000)" fill="#000000">
            <g id="search" transform="translate(16.000000, 56.000000)">
                <g id="search-icon" transform="translate(20.000000, 8.000000)">
                    <g id="Search" transform="translate(3.000000, 3.000000)">
                        <path d="M12.6062932,11.1922932 L18,16.586 L16.586,18 L11.1922932,12.6062932 C10.0236917,13.4815603 8.57238987,14 7,14 C3.13400675,14 0,10.8659932 0,7 C0,3.13400675 3.13400675,0 7,0 C10.8659932,0 14,3.13400675 14,7 C14,8.57238987 13.4815603,10.0236917 12.6062932,11.1922932 L12.6062932,11.1922932 Z M7,12 C9.76142375,12 12,9.76142375 12,7 C12,4.23857625 9.76142375,2 7,2 C4.23857625,2 2,4.23857625 2,7 C2,9.76142375 4.23857625,12 7,12 Z" id="Combined-Shape"></path>
                    </g>
                </g>
            </g>
        </g>
    </g>
</svg>