<?xml version="1.0" encoding="UTF-8"?>
<svg width="20px" height="12px" viewBox="0 0 20 12" version="1.1" xmlns="http://www.w3.org/2000/svg" xmlns:xlink="http://www.w3.org/1999/xlink">
    <!-- Generator: sketchtool 47.1 (45422) - http://www.bohemiancoding.com/sketch -->
    <title>4FFB58B8-D6FA-4E58-9323-75705F3782B8</title>
    <desc>Created with sketchtool.</desc>
    <defs></defs>
    <g id="05-My-profile" stroke="none" stroke-width="1" fill="none" fill-rule="evenodd">
        <g id="05.01.-Profile" transform="translate(-639.000000, -728.000000)">
            <g id="Personal-data-" transform="translate(418.000000, 420.000000)">
                <g id="Group-2-Copy-2" transform="translate(0.000000, 292.000000)">
                    <g id="Group-8">
                        <g id="Group-12" transform="translate(209.000000, 0.000000)">
                            <g id="vk" transform="translate(10.000000, 10.000000)">
                                <rect id="Rectangle-2" opacity="0" x="0" y="0" width="24" height="24"></rect>
                                <path d="M19.1777053,13.1819163 C19.8397757,13.8283137 20.5385695,14.4364794 21.1323738,15.1480608 C21.3946837,15.4642755 21.6430257,15.7905891 21.8330037,16.1575608 C22.1021994,16.6792298 21.8583822,17.2532952 21.3906179,17.2844445 L18.4829117,17.2831329 C17.7329675,17.345366 17.134704,17.0434472 16.631659,16.5306967 C16.2290787,16.1206406 15.8562707,15.6842224 15.4691667,15.2603295 C15.3104692,15.0870737 15.1443614,14.9240481 14.9459239,14.7951883 C14.5489833,14.5375343 14.2044391,14.616424 13.9776066,15.0304148 C13.746577,15.4514879 13.6941806,15.9177439 13.6714908,16.3870164 C13.6403415,17.0717111 13.4333789,17.2517213 12.7456021,17.2830674 C11.2757481,17.3523828 9.8807836,17.1300095 8.58490669,16.3885247 C7.44241554,15.7348482 6.55646356,14.8120417 5.78533777,13.7673266 C4.28394099,11.7330471 3.13417074,9.49770694 2.10080054,7.1997403 C1.86819716,6.68200597 2.03830519,6.40408853 2.60955076,6.39425191 C3.55812925,6.37582463 4.50657659,6.37713618 5.4562699,6.39294036 C5.8418,6.39858003 6.09702762,6.61970734 6.24588853,6.98392476 C6.75909802,8.24583253 7.38706813,9.44642534 8.17530964,10.5592755 C8.38522321,10.8555546 8.59926816,11.1518337 8.90407236,11.3603702 C9.24127185,11.5912685 9.49800775,11.5147396 9.65663971,11.1391117 C9.75730117,10.9009342 9.80136925,10.644395 9.82405906,10.3892986 C9.89921088,9.51167495 9.90911308,8.63555959 9.77730231,7.7610181 C9.69637968,7.21521659 9.38895237,6.86188504 8.84433126,6.75860048 C8.56641383,6.70594175 8.60779323,6.60252604 8.74235826,6.44389408 C8.97607645,6.17030476 9.19589222,6 9.63408106,6 L12.920235,6 C13.4375759,6.10210416 13.5524676,6.33451081 13.6232913,6.85506498 L13.6261112,10.5053052 C13.6204715,10.7068248 13.7267726,11.304826 14.0897441,11.4382106 C14.3802524,11.5331669 14.5717387,11.3007602 14.7460437,11.116553 C15.5328425,10.2814892 16.0943826,9.29461343 16.5960504,8.2727193 C16.818686,7.8233823 17.0101067,7.35673283 17.1956255,6.89047683 C17.3330759,6.54448996 17.5487603,6.37425077 17.9384874,6.38179219 L21.1012244,6.38461202 C21.1950003,6.38461202 21.2898909,6.38598915 21.3807157,6.40153101 C21.913664,6.49235585 22.0597051,6.72161477 21.8951056,7.24203779 C21.6357466,8.0585432 21.1311278,8.73897531 20.6377227,9.42255513 C20.1102829,10.1523671 19.5461853,10.857194 19.0231391,11.5913341 C18.5425873,12.2617329 18.5807534,12.5996537 19.1777053,13.1819163 L19.1777053,13.1819163 L19.1777053,13.1819163 Z" id="XMLID_807_" fill="#FFFFFF"></path>
                            </g>
                        </g>
                    </g>
                </g>
            </g>
        </g>
    </g>
</svg>